<?xml version="1.0" standalone="no"?>
<svg width="567" height="339" viewBox="0 0 567 339" xmlns="http://www.w3.org/2000/svg">
<title>
plots/color_scheme3000.svg
</title>
<desc>
Creator: ROOT Version 5.34/02
CreationDate: Wed Mar 20 13:54:40 2013</desc>
<defs>
</defs>
<rect x="0" y="0" width="567" height="339" fill="white"/>
<rect x="0" y="283" width="142" height="56" fill="#021a6a"/>
<text x="71" y="322" text-anchor="middle" fill="black" font-size="22" font-family="Helvetica" font-weight="bold">
3000
</text>
<rect x="0" y="226" width="142" height="57" fill="#8b9cd5"/>
<text x="71" y="265" text-anchor="middle" fill="black" font-size="22" font-family="Helvetica" font-weight="bold">
3004
</text>
<rect x="0" y="170" width="142" height="56" fill="#e3b652"/>
<text x="71" y="209" text-anchor="middle" fill="black" font-size="22" font-family="Helvetica" font-weight="bold">
3008
</text>
<rect x="0" y="113" width="142" height="57" fill="#2a0045"/>
<text x="71" y="152" text-anchor="middle" fill="black" font-size="22" font-family="Helvetica" font-weight="bold">
3012
</text>
<rect x="0" y="57" width="142" height="56" fill="#155530"/>
<text x="71" y="96" text-anchor="middle" fill="black" font-size="22" font-family="Helvetica" font-weight="bold">
3016
</text>
<rect x="0" y="0" width="142" height="57" fill="white"/>
<text x="71" y="39" text-anchor="middle" fill="black" font-size="22" font-family="Helvetica" font-weight="bold">
3020
</text>
<rect x="142" y="283" width="141" height="56" fill="#152250"/>
<text x="213" y="322" text-anchor="middle" fill="black" font-size="22" font-family="Helvetica" font-weight="bold">
3001
</text>
<rect x="142" y="226" width="141" height="57" fill="#9d6c00"/>
<text x="213" y="265" text-anchor="middle" fill="black" font-size="22" font-family="Helvetica" font-weight="bold">
3005
</text>
<rect x="142" y="170" width="141" height="56" fill="#e3ca93"/>
<text x="213" y="209" text-anchor="middle" fill="black" font-size="22" font-family="Helvetica" font-weight="bold">
3009
</text>
<rect x="142" y="113" width="141" height="57" fill="#a04ed5"/>
<text x="213" y="152" text-anchor="middle" fill="black" font-size="22" font-family="Helvetica" font-weight="bold">
3013
</text>
<rect x="142" y="57" width="141" height="56" fill="#004a20"/>
<text x="213" y="96" text-anchor="middle" fill="black" font-size="22" font-family="Helvetica" font-weight="bold">
3017
</text>
<rect x="142" y="0" width="141" height="57" fill="white"/>
<text x="213" y="39" text-anchor="middle" fill="black" font-size="22" font-family="Helvetica" font-weight="bold">
3021
</text>
<rect x="283" y="283" width="142" height="56" fill="#011146"/>
<text x="354" y="322" text-anchor="middle" fill="black" font-size="22" font-family="Helvetica" font-weight="bold">
3002
</text>
<rect x="283" y="226" width="142" height="57" fill="#775b1d"/>
<text x="354" y="265" text-anchor="middle" fill="black" font-size="22" font-family="Helvetica" font-weight="bold">
3006
</text>
<rect x="283" y="170" width="142" height="56" fill="#410169"/>
<text x="354" y="209" text-anchor="middle" fill="black" font-size="22" font-family="Helvetica" font-weight="bold">
3010
</text>
<rect x="283" y="113" width="142" height="57" fill="#b88ad5"/>
<text x="354" y="152" text-anchor="middle" fill="black" font-size="22" font-family="Helvetica" font-weight="bold">
3014
</text>
<rect x="283" y="57" width="142" height="56" fill="#4dd789"/>
<text x="354" y="96" text-anchor="middle" fill="black" font-size="22" font-family="Helvetica" font-weight="bold">
3018
</text>
<rect x="283" y="0" width="142" height="57" fill="white"/>
<text x="354" y="39" text-anchor="middle" fill="black" font-size="22" font-family="Helvetica" font-weight="bold">
3022
</text>
<rect x="425" y="283" width="142" height="56" fill="#4f6ed5"/>
<text x="496" y="322" text-anchor="middle" fill="black" font-size="22" font-family="Helvetica" font-weight="bold">
3003
</text>
<rect x="425" y="226" width="142" height="57" fill="#674700"/>
<text x="496" y="265" text-anchor="middle" fill="black" font-size="22" font-family="Helvetica" font-weight="bold">
3007
</text>
<rect x="425" y="170" width="142" height="56" fill="#38144f"/>
<text x="496" y="209" text-anchor="middle" fill="black" font-size="22" font-family="Helvetica" font-weight="bold">
3011
</text>
<rect x="425" y="113" width="142" height="57" fill="#007031"/>
<text x="496" y="152" text-anchor="middle" fill="black" font-size="22" font-family="Helvetica" font-weight="bold">
3015
</text>
<rect x="425" y="57" width="142" height="56" fill="#8bd7ac"/>
<text x="496" y="96" text-anchor="middle" fill="black" font-size="22" font-family="Helvetica" font-weight="bold">
3019
</text>
<rect x="425" y="0" width="142" height="57" fill="white"/>
<text x="496" y="39" text-anchor="middle" fill="black" font-size="22" font-family="Helvetica" font-weight="bold">
3023
</text></svg>
