<?xml version="1.0" standalone="no"?>
<svg width="567" height="336" viewBox="0 0 567 336" xmlns="http://www.w3.org/2000/svg">
<title>
plots/color_scheme4500.svg
</title>
<desc>
Creator: ROOT Version 5.34/13
CreationDate: Fri Dec 13 10:49:19 2013</desc>
<defs>
</defs>
<rect x="0" y="0" width="567" height="336" fill="white"/>
<rect x="0" y="280" width="142" height="56" fill="#001e32" fill-opacity="0.20" stroke-opacity="0.20"/>
<text x="71" y="319" text-anchor="middle" fill="black" font-size="22" font-family="Helvetica" font-weight="bold">
4500
</text>
<rect x="0" y="224" width="142" height="56" fill="#003d66" fill-opacity="0.20" stroke-opacity="0.20"/>
<text x="71" y="263" text-anchor="middle" fill="black" font-size="22" font-family="Helvetica" font-weight="bold">
4504
</text>
<rect x="0" y="168" width="142" height="56" fill="#007acc" fill-opacity="0.20" stroke-opacity="0.20"/>
<text x="71" y="207" text-anchor="middle" fill="black" font-size="22" font-family="Helvetica" font-weight="bold">
4508
</text>
<rect x="0" y="112" width="142" height="56" fill="#33adff" fill-opacity="0.20" stroke-opacity="0.20"/>
<text x="71" y="151" text-anchor="middle" fill="black" font-size="22" font-family="Helvetica" font-weight="bold">
4512
</text>
<rect x="0" y="56" width="142" height="56" fill="#99d6ff" fill-opacity="0.20" stroke-opacity="0.20"/>
<text x="71" y="95" text-anchor="middle" fill="black" font-size="22" font-family="Helvetica" font-weight="bold">
4516
</text>
<rect x="0" y="0" width="142" height="56" fill="white"/>
<text x="71" y="39" text-anchor="middle" fill="black" font-size="22" font-family="Helvetica" font-weight="bold">
4520
</text>
<rect x="142" y="280" width="141" height="56" fill="#230032" fill-opacity="0.20" stroke-opacity="0.20"/>
<text x="213" y="319" text-anchor="middle" fill="black" font-size="22" font-family="Helvetica" font-weight="bold">
4501
</text>
<rect x="142" y="224" width="141" height="56" fill="#470066" fill-opacity="0.20" stroke-opacity="0.20"/>
<text x="213" y="263" text-anchor="middle" fill="black" font-size="22" font-family="Helvetica" font-weight="bold">
4505
</text>
<rect x="142" y="168" width="141" height="56" fill="#8e00cc" fill-opacity="0.20" stroke-opacity="0.20"/>
<text x="213" y="207" text-anchor="middle" fill="black" font-size="22" font-family="Helvetica" font-weight="bold">
4509
</text>
<rect x="142" y="112" width="141" height="56" fill="#c133ff" fill-opacity="0.20" stroke-opacity="0.20"/>
<text x="213" y="151" text-anchor="middle" fill="black" font-size="22" font-family="Helvetica" font-weight="bold">
4513
</text>
<rect x="142" y="56" width="141" height="56" fill="#e099ff" fill-opacity="0.20" stroke-opacity="0.20"/>
<text x="213" y="95" text-anchor="middle" fill="black" font-size="22" font-family="Helvetica" font-weight="bold">
4517
</text>
<rect x="142" y="0" width="141" height="56" fill="white"/>
<text x="213" y="39" text-anchor="middle" fill="black" font-size="22" font-family="Helvetica" font-weight="bold">
4521
</text>
<rect x="283" y="280" width="142" height="56" fill="#0a3200" fill-opacity="0.20" stroke-opacity="0.20"/>
<text x="354" y="319" text-anchor="middle" fill="black" font-size="22" font-family="Helvetica" font-weight="bold">
4502
</text>
<rect x="283" y="224" width="142" height="56" fill="#146600" fill-opacity="0.20" stroke-opacity="0.20"/>
<text x="354" y="263" text-anchor="middle" fill="black" font-size="22" font-family="Helvetica" font-weight="bold">
4506
</text>
<rect x="283" y="168" width="142" height="56" fill="#28cc00" fill-opacity="0.20" stroke-opacity="0.20"/>
<text x="354" y="207" text-anchor="middle" fill="black" font-size="22" font-family="Helvetica" font-weight="bold">
4510
</text>
<rect x="283" y="112" width="142" height="56" fill="#5bff33" fill-opacity="0.20" stroke-opacity="0.20"/>
<text x="354" y="151" text-anchor="middle" fill="black" font-size="22" font-family="Helvetica" font-weight="bold">
4514
</text>
<rect x="283" y="56" width="142" height="56" fill="#adff99" fill-opacity="0.20" stroke-opacity="0.20"/>
<text x="354" y="95" text-anchor="middle" fill="black" font-size="22" font-family="Helvetica" font-weight="bold">
4518
</text>
<rect x="283" y="0" width="142" height="56" fill="white"/>
<text x="354" y="39" text-anchor="middle" fill="black" font-size="22" font-family="Helvetica" font-weight="bold">
4522
</text>
<rect x="425" y="280" width="142" height="56" fill="#321700" fill-opacity="0.20" stroke-opacity="0.20"/>
<text x="496" y="319" text-anchor="middle" fill="black" font-size="22" font-family="Helvetica" font-weight="bold">
4503
</text>
<rect x="425" y="224" width="142" height="56" fill="#662f00" fill-opacity="0.20" stroke-opacity="0.20"/>
<text x="496" y="263" text-anchor="middle" fill="black" font-size="22" font-family="Helvetica" font-weight="bold">
4507
</text>
<rect x="425" y="168" width="142" height="56" fill="#cc5f00" fill-opacity="0.20" stroke-opacity="0.20"/>
<text x="496" y="207" text-anchor="middle" fill="black" font-size="22" font-family="Helvetica" font-weight="bold">
4511
</text>
<rect x="425" y="112" width="142" height="56" fill="#ff9233" fill-opacity="0.20" stroke-opacity="0.20"/>
<text x="496" y="151" text-anchor="middle" fill="black" font-size="22" font-family="Helvetica" font-weight="bold">
4515
</text>
<rect x="425" y="56" width="142" height="56" fill="#ffc899" fill-opacity="0.20" stroke-opacity="0.20"/>
<text x="496" y="95" text-anchor="middle" fill="black" font-size="22" font-family="Helvetica" font-weight="bold">
4519
</text>
<rect x="425" y="0" width="142" height="56" fill="white"/>
<text x="496" y="39" text-anchor="middle" fill="black" font-size="22" font-family="Helvetica" font-weight="bold">
4523
</text></svg>
