<?xml version="1.0" standalone="no"?>
<svg width="567" height="336" viewBox="0 0 567 336" xmlns="http://www.w3.org/2000/svg">
<title>
plots/color_scheme3000.svg
</title>
<desc>
Creator: ROOT Version 5.34/13
CreationDate: Fri Dec 13 10:49:19 2013</desc>
<defs>
</defs>
<rect x="0" y="0" width="567" height="336" fill="white"/>
<rect x="0" y="280" width="142" height="56" fill="#021a6a"/>
<text x="71" y="319" text-anchor="middle" fill="black" font-size="22" font-family="Helvetica" font-weight="bold">
3000
</text>
<rect x="0" y="224" width="142" height="56" fill="#8b9cd5"/>
<text x="71" y="263" text-anchor="middle" fill="black" font-size="22" font-family="Helvetica" font-weight="bold">
3004
</text>
<rect x="0" y="168" width="142" height="56" fill="#e3b652"/>
<text x="71" y="207" text-anchor="middle" fill="black" font-size="22" font-family="Helvetica" font-weight="bold">
3008
</text>
<rect x="0" y="112" width="142" height="56" fill="#2a0045"/>
<text x="71" y="151" text-anchor="middle" fill="black" font-size="22" font-family="Helvetica" font-weight="bold">
3012
</text>
<rect x="0" y="56" width="142" height="56" fill="#155530"/>
<text x="71" y="95" text-anchor="middle" fill="black" font-size="22" font-family="Helvetica" font-weight="bold">
3016
</text>
<rect x="0" y="0" width="142" height="56" fill="white"/>
<text x="71" y="39" text-anchor="middle" fill="black" font-size="22" font-family="Helvetica" font-weight="bold">
3020
</text>
<rect x="142" y="280" width="141" height="56" fill="#152250"/>
<text x="213" y="319" text-anchor="middle" fill="black" font-size="22" font-family="Helvetica" font-weight="bold">
3001
</text>
<rect x="142" y="224" width="141" height="56" fill="#9d6c00"/>
<text x="213" y="263" text-anchor="middle" fill="black" font-size="22" font-family="Helvetica" font-weight="bold">
3005
</text>
<rect x="142" y="168" width="141" height="56" fill="#e3ca93"/>
<text x="213" y="207" text-anchor="middle" fill="black" font-size="22" font-family="Helvetica" font-weight="bold">
3009
</text>
<rect x="142" y="112" width="141" height="56" fill="#a04ed5"/>
<text x="213" y="151" text-anchor="middle" fill="black" font-size="22" font-family="Helvetica" font-weight="bold">
3013
</text>
<rect x="142" y="56" width="141" height="56" fill="#004a20"/>
<text x="213" y="95" text-anchor="middle" fill="black" font-size="22" font-family="Helvetica" font-weight="bold">
3017
</text>
<rect x="142" y="0" width="141" height="56" fill="white"/>
<text x="213" y="39" text-anchor="middle" fill="black" font-size="22" font-family="Helvetica" font-weight="bold">
3021
</text>
<rect x="283" y="280" width="142" height="56" fill="#011146"/>
<text x="354" y="319" text-anchor="middle" fill="black" font-size="22" font-family="Helvetica" font-weight="bold">
3002
</text>
<rect x="283" y="224" width="142" height="56" fill="#775b1d"/>
<text x="354" y="263" text-anchor="middle" fill="black" font-size="22" font-family="Helvetica" font-weight="bold">
3006
</text>
<rect x="283" y="168" width="142" height="56" fill="#410169"/>
<text x="354" y="207" text-anchor="middle" fill="black" font-size="22" font-family="Helvetica" font-weight="bold">
3010
</text>
<rect x="283" y="112" width="142" height="56" fill="#b88ad5"/>
<text x="354" y="151" text-anchor="middle" fill="black" font-size="22" font-family="Helvetica" font-weight="bold">
3014
</text>
<rect x="283" y="56" width="142" height="56" fill="#4dd789"/>
<text x="354" y="95" text-anchor="middle" fill="black" font-size="22" font-family="Helvetica" font-weight="bold">
3018
</text>
<rect x="283" y="0" width="142" height="56" fill="white"/>
<text x="354" y="39" text-anchor="middle" fill="black" font-size="22" font-family="Helvetica" font-weight="bold">
3022
</text>
<rect x="425" y="280" width="142" height="56" fill="#4f6ed5"/>
<text x="496" y="319" text-anchor="middle" fill="black" font-size="22" font-family="Helvetica" font-weight="bold">
3003
</text>
<rect x="425" y="224" width="142" height="56" fill="#674700"/>
<text x="496" y="263" text-anchor="middle" fill="black" font-size="22" font-family="Helvetica" font-weight="bold">
3007
</text>
<rect x="425" y="168" width="142" height="56" fill="#38144f"/>
<text x="496" y="207" text-anchor="middle" fill="black" font-size="22" font-family="Helvetica" font-weight="bold">
3011
</text>
<rect x="425" y="112" width="142" height="56" fill="#007031"/>
<text x="496" y="151" text-anchor="middle" fill="black" font-size="22" font-family="Helvetica" font-weight="bold">
3015
</text>
<rect x="425" y="56" width="142" height="56" fill="#8bd7ac"/>
<text x="496" y="95" text-anchor="middle" fill="black" font-size="22" font-family="Helvetica" font-weight="bold">
3019
</text>
<rect x="425" y="0" width="142" height="56" fill="white"/>
<text x="496" y="39" text-anchor="middle" fill="black" font-size="22" font-family="Helvetica" font-weight="bold">
3023
</text></svg>
