<?xml version="1.0" standalone="no"?>
<svg width="567" height="336" viewBox="0 0 567 336" xmlns="http://www.w3.org/2000/svg">
<title>
plots/color_scheme9000.svg
</title>
<desc>
Creator: ROOT Version 5.34/13
CreationDate: Fri Dec 13 10:49:20 2013</desc>
<defs>
</defs>
<rect x="0" y="0" width="567" height="336" fill="white"/>
<rect x="0" y="280" width="142" height="56" fill="#281e32"/>
<text x="71" y="319" text-anchor="middle" fill="black" font-size="22" font-family="Helvetica" font-weight="bold">
9000
</text>
<rect x="0" y="224" width="142" height="56" fill="#33263f"/>
<text x="71" y="263" text-anchor="middle" fill="black" font-size="22" font-family="Helvetica" font-weight="bold">
9004
</text>
<rect x="0" y="168" width="142" height="56" fill="#664c7f"/>
<text x="71" y="207" text-anchor="middle" fill="black" font-size="22" font-family="Helvetica" font-weight="bold">
9008
</text>
<rect x="0" y="112" width="142" height="56" fill="#997fb2"/>
<text x="71" y="151" text-anchor="middle" fill="black" font-size="22" font-family="Helvetica" font-weight="bold">
9012
</text>
<rect x="0" y="56" width="142" height="56" fill="#ccbfd8"/>
<text x="71" y="95" text-anchor="middle" fill="black" font-size="22" font-family="Helvetica" font-weight="bold">
9016
</text>
<rect x="0" y="0" width="142" height="56" fill="white"/>
<text x="71" y="39" text-anchor="middle" fill="black" font-size="22" font-family="Helvetica" font-weight="bold">
9020
</text>
<rect x="142" y="280" width="141" height="56" fill="#321e32"/>
<text x="213" y="319" text-anchor="middle" fill="black" font-size="22" font-family="Helvetica" font-weight="bold">
9001
</text>
<rect x="142" y="224" width="141" height="56" fill="#3f263f"/>
<text x="213" y="263" text-anchor="middle" fill="black" font-size="22" font-family="Helvetica" font-weight="bold">
9005
</text>
<rect x="142" y="168" width="141" height="56" fill="#7f4c7f"/>
<text x="213" y="207" text-anchor="middle" fill="black" font-size="22" font-family="Helvetica" font-weight="bold">
9009
</text>
<rect x="142" y="112" width="141" height="56" fill="#b27fb2"/>
<text x="213" y="151" text-anchor="middle" fill="black" font-size="22" font-family="Helvetica" font-weight="bold">
9013
</text>
<rect x="142" y="56" width="141" height="56" fill="#d8bfd8"/>
<text x="213" y="95" text-anchor="middle" fill="black" font-size="22" font-family="Helvetica" font-weight="bold">
9017
</text>
<rect x="142" y="0" width="141" height="56" fill="white"/>
<text x="213" y="39" text-anchor="middle" fill="black" font-size="22" font-family="Helvetica" font-weight="bold">
9021
</text>
<rect x="283" y="280" width="142" height="56" fill="#1e1e32"/>
<text x="354" y="319" text-anchor="middle" fill="black" font-size="22" font-family="Helvetica" font-weight="bold">
9002
</text>
<rect x="283" y="224" width="142" height="56" fill="#26263f"/>
<text x="354" y="263" text-anchor="middle" fill="black" font-size="22" font-family="Helvetica" font-weight="bold">
9006
</text>
<rect x="283" y="168" width="142" height="56" fill="#4c4c7f"/>
<text x="354" y="207" text-anchor="middle" fill="black" font-size="22" font-family="Helvetica" font-weight="bold">
9010
</text>
<rect x="283" y="112" width="142" height="56" fill="#7f7fb2"/>
<text x="354" y="151" text-anchor="middle" fill="black" font-size="22" font-family="Helvetica" font-weight="bold">
9014
</text>
<rect x="283" y="56" width="142" height="56" fill="#bfbfd8"/>
<text x="354" y="95" text-anchor="middle" fill="black" font-size="22" font-family="Helvetica" font-weight="bold">
9018
</text>
<rect x="283" y="0" width="142" height="56" fill="white"/>
<text x="354" y="39" text-anchor="middle" fill="black" font-size="22" font-family="Helvetica" font-weight="bold">
9022
</text>
<rect x="425" y="280" width="142" height="56" fill="#32321e"/>
<text x="496" y="319" text-anchor="middle" fill="black" font-size="22" font-family="Helvetica" font-weight="bold">
9003
</text>
<rect x="425" y="224" width="142" height="56" fill="#3f3f26"/>
<text x="496" y="263" text-anchor="middle" fill="black" font-size="22" font-family="Helvetica" font-weight="bold">
9007
</text>
<rect x="425" y="168" width="142" height="56" fill="#7f7f4c"/>
<text x="496" y="207" text-anchor="middle" fill="black" font-size="22" font-family="Helvetica" font-weight="bold">
9011
</text>
<rect x="425" y="112" width="142" height="56" fill="#b2b27f"/>
<text x="496" y="151" text-anchor="middle" fill="black" font-size="22" font-family="Helvetica" font-weight="bold">
9015
</text>
<rect x="425" y="56" width="142" height="56" fill="#d8d8bf"/>
<text x="496" y="95" text-anchor="middle" fill="black" font-size="22" font-family="Helvetica" font-weight="bold">
9019
</text>
<rect x="425" y="0" width="142" height="56" fill="white"/>
<text x="496" y="39" text-anchor="middle" fill="black" font-size="22" font-family="Helvetica" font-weight="bold">
9023
</text></svg>
