<?xml version="1.0" standalone="no"?>
<svg width="567" height="339" viewBox="0 0 567 339" xmlns="http://www.w3.org/2000/svg">
<title>
plots/color_scheme4500.svg
</title>
<desc>
Creator: ROOT Version 5.34/02
CreationDate: Wed Mar 20 14:07:15 2013</desc>
<defs>
</defs>
<rect x="0" y="0" width="567" height="339" fill="white"/>
<rect x="0" y="283" width="142" height="56" fill="#783b04" fill-opacity="0.50" stroke-opacity="0.50"/>
<text x="71" y="322" text-anchor="middle" fill="black" font-size="22" font-family="Helvetica" font-weight="bold">
4500
</text>
<rect x="0" y="226" width="142" height="57" fill="#613004" fill-opacity="0.50" stroke-opacity="0.50"/>
<text x="71" y="265" text-anchor="middle" fill="black" font-size="22" font-family="Helvetica" font-weight="bold">
4504
</text>
<rect x="0" y="170" width="142" height="56" fill="#c36108" fill-opacity="0.50" stroke-opacity="0.50"/>
<text x="71" y="209" text-anchor="middle" fill="black" font-size="22" font-family="Helvetica" font-weight="bold">
4508
</text>
<rect x="0" y="113" width="142" height="57" fill="#f6943b" fill-opacity="0.50" stroke-opacity="0.50"/>
<text x="71" y="152" text-anchor="middle" fill="black" font-size="22" font-family="Helvetica" font-weight="bold">
4512
</text>
<rect x="0" y="57" width="142" height="56" fill="#fac99d" fill-opacity="0.50" stroke-opacity="0.50"/>
<text x="71" y="96" text-anchor="middle" fill="black" font-size="22" font-family="Helvetica" font-weight="bold">
4516
</text>
<rect x="0" y="0" width="142" height="57" fill="white"/>
<text x="71" y="39" text-anchor="middle" fill="black" font-size="22" font-family="Helvetica" font-weight="bold">
4520
</text>
<rect x="142" y="283" width="141" height="56" fill="#785d04" fill-opacity="0.50" stroke-opacity="0.50"/>
<text x="213" y="322" text-anchor="middle" fill="black" font-size="22" font-family="Helvetica" font-weight="bold">
4501
</text>
<rect x="142" y="226" width="141" height="57" fill="#614c04" fill-opacity="0.50" stroke-opacity="0.50"/>
<text x="213" y="265" text-anchor="middle" fill="black" font-size="22" font-family="Helvetica" font-weight="bold">
4505
</text>
<rect x="142" y="170" width="141" height="56" fill="#c39808" fill-opacity="0.50" stroke-opacity="0.50"/>
<text x="213" y="209" text-anchor="middle" fill="black" font-size="22" font-family="Helvetica" font-weight="bold">
4509
</text>
<rect x="142" y="113" width="141" height="57" fill="#f6cb3b" fill-opacity="0.50" stroke-opacity="0.50"/>
<text x="213" y="152" text-anchor="middle" fill="black" font-size="22" font-family="Helvetica" font-weight="bold">
4513
</text>
<rect x="142" y="57" width="141" height="56" fill="#fae59d" fill-opacity="0.50" stroke-opacity="0.50"/>
<text x="213" y="96" text-anchor="middle" fill="black" font-size="22" font-family="Helvetica" font-weight="bold">
4517
</text>
<rect x="142" y="0" width="141" height="57" fill="white"/>
<text x="213" y="39" text-anchor="middle" fill="black" font-size="22" font-family="Helvetica" font-weight="bold">
4521
</text>
<rect x="283" y="283" width="142" height="56" fill="#781a04" fill-opacity="0.50" stroke-opacity="0.50"/>
<text x="354" y="322" text-anchor="middle" fill="black" font-size="22" font-family="Helvetica" font-weight="bold">
4502
</text>
<rect x="283" y="226" width="142" height="57" fill="#611504" fill-opacity="0.50" stroke-opacity="0.50"/>
<text x="354" y="265" text-anchor="middle" fill="black" font-size="22" font-family="Helvetica" font-weight="bold">
4506
</text>
<rect x="283" y="170" width="142" height="56" fill="#c32b08" fill-opacity="0.50" stroke-opacity="0.50"/>
<text x="354" y="209" text-anchor="middle" fill="black" font-size="22" font-family="Helvetica" font-weight="bold">
4510
</text>
<rect x="283" y="113" width="142" height="57" fill="#f65e3b" fill-opacity="0.50" stroke-opacity="0.50"/>
<text x="354" y="152" text-anchor="middle" fill="black" font-size="22" font-family="Helvetica" font-weight="bold">
4514
</text>
<rect x="283" y="57" width="142" height="56" fill="#faae9d" fill-opacity="0.50" stroke-opacity="0.50"/>
<text x="354" y="96" text-anchor="middle" fill="black" font-size="22" font-family="Helvetica" font-weight="bold">
4518
</text>
<rect x="283" y="0" width="142" height="57" fill="white"/>
<text x="354" y="39" text-anchor="middle" fill="black" font-size="22" font-family="Helvetica" font-weight="bold">
4522
</text>
<rect x="425" y="283" width="142" height="56" fill="#044678" fill-opacity="0.50" stroke-opacity="0.50"/>
<text x="496" y="322" text-anchor="middle" fill="black" font-size="22" font-family="Helvetica" font-weight="bold">
4503
</text>
<rect x="425" y="226" width="142" height="57" fill="#043961" fill-opacity="0.50" stroke-opacity="0.50"/>
<text x="496" y="265" text-anchor="middle" fill="black" font-size="22" font-family="Helvetica" font-weight="bold">
4507
</text>
<rect x="425" y="170" width="142" height="56" fill="#0872c3" fill-opacity="0.50" stroke-opacity="0.50"/>
<text x="496" y="209" text-anchor="middle" fill="black" font-size="22" font-family="Helvetica" font-weight="bold">
4511
</text>
<rect x="425" y="113" width="142" height="57" fill="#3ba5f6" fill-opacity="0.50" stroke-opacity="0.50"/>
<text x="496" y="152" text-anchor="middle" fill="black" font-size="22" font-family="Helvetica" font-weight="bold">
4515
</text>
<rect x="425" y="57" width="142" height="56" fill="#9dd2fa" fill-opacity="0.50" stroke-opacity="0.50"/>
<text x="496" y="96" text-anchor="middle" fill="black" font-size="22" font-family="Helvetica" font-weight="bold">
4519
</text>
<rect x="425" y="0" width="142" height="57" fill="white"/>
<text x="496" y="39" text-anchor="middle" fill="black" font-size="22" font-family="Helvetica" font-weight="bold">
4523
</text></svg>
