<?xml version="1.0" standalone="no"?>
<svg width="567" height="339" viewBox="0 0 567 339" xmlns="http://www.w3.org/2000/svg">
<title>
plots/color_scheme5000.svg
</title>
<desc>
Creator: ROOT Version 5.34/02
CreationDate: Wed Mar 20 13:54:40 2013</desc>
<defs>
</defs>
<rect x="0" y="0" width="567" height="339" fill="white"/>
<rect x="0" y="283" width="142" height="56" fill="#643200"/>
<text x="71" y="322" text-anchor="middle" fill="black" font-size="22" font-family="Helvetica" font-weight="bold">
5000
</text>
<rect x="0" y="226" width="142" height="57" fill="#663300"/>
<text x="71" y="265" text-anchor="middle" fill="black" font-size="22" font-family="Helvetica" font-weight="bold">
5004
</text>
<rect x="0" y="170" width="142" height="56" fill="#cc6600"/>
<text x="71" y="209" text-anchor="middle" fill="black" font-size="22" font-family="Helvetica" font-weight="bold">
5008
</text>
<rect x="0" y="113" width="142" height="57" fill="#ff9933"/>
<text x="71" y="152" text-anchor="middle" fill="black" font-size="22" font-family="Helvetica" font-weight="bold">
5012
</text>
<rect x="0" y="57" width="142" height="56" fill="#ffcc99"/>
<text x="71" y="96" text-anchor="middle" fill="black" font-size="22" font-family="Helvetica" font-weight="bold">
5016
</text>
<rect x="0" y="0" width="142" height="57" fill="white"/>
<text x="71" y="39" text-anchor="middle" fill="black" font-size="22" font-family="Helvetica" font-weight="bold">
5020
</text>
<rect x="142" y="283" width="141" height="56" fill="#644b00"/>
<text x="213" y="322" text-anchor="middle" fill="black" font-size="22" font-family="Helvetica" font-weight="bold">
5001
</text>
<rect x="142" y="226" width="141" height="57" fill="#664d00"/>
<text x="213" y="265" text-anchor="middle" fill="black" font-size="22" font-family="Helvetica" font-weight="bold">
5005
</text>
<rect x="142" y="170" width="141" height="56" fill="#cc9a00"/>
<text x="213" y="209" text-anchor="middle" fill="black" font-size="22" font-family="Helvetica" font-weight="bold">
5009
</text>
<rect x="142" y="113" width="141" height="57" fill="#ffcd33"/>
<text x="213" y="152" text-anchor="middle" fill="black" font-size="22" font-family="Helvetica" font-weight="bold">
5013
</text>
<rect x="142" y="57" width="141" height="56" fill="#ffe699"/>
<text x="213" y="96" text-anchor="middle" fill="black" font-size="22" font-family="Helvetica" font-weight="bold">
5017
</text>
<rect x="142" y="0" width="141" height="57" fill="white"/>
<text x="213" y="39" text-anchor="middle" fill="black" font-size="22" font-family="Helvetica" font-weight="bold">
5021
</text>
<rect x="283" y="283" width="142" height="56" fill="#641800"/>
<text x="354" y="322" text-anchor="middle" fill="black" font-size="22" font-family="Helvetica" font-weight="bold">
5002
</text>
<rect x="283" y="226" width="142" height="57" fill="#661800"/>
<text x="354" y="265" text-anchor="middle" fill="black" font-size="22" font-family="Helvetica" font-weight="bold">
5006
</text>
<rect x="283" y="170" width="142" height="56" fill="#cc3100"/>
<text x="354" y="209" text-anchor="middle" fill="black" font-size="22" font-family="Helvetica" font-weight="bold">
5010
</text>
<rect x="283" y="113" width="142" height="57" fill="#ff6433"/>
<text x="354" y="152" text-anchor="middle" fill="black" font-size="22" font-family="Helvetica" font-weight="bold">
5014
</text>
<rect x="283" y="57" width="142" height="56" fill="#ffb199"/>
<text x="354" y="96" text-anchor="middle" fill="black" font-size="22" font-family="Helvetica" font-weight="bold">
5018
</text>
<rect x="283" y="0" width="142" height="57" fill="white"/>
<text x="354" y="39" text-anchor="middle" fill="black" font-size="22" font-family="Helvetica" font-weight="bold">
5022
</text>
<rect x="425" y="283" width="142" height="56" fill="#003264"/>
<text x="496" y="322" text-anchor="middle" fill="black" font-size="22" font-family="Helvetica" font-weight="bold">
5003
</text>
<rect x="425" y="226" width="142" height="57" fill="#003366"/>
<text x="496" y="265" text-anchor="middle" fill="black" font-size="22" font-family="Helvetica" font-weight="bold">
5007
</text>
<rect x="425" y="170" width="142" height="56" fill="#0066cc"/>
<text x="496" y="209" text-anchor="middle" fill="black" font-size="22" font-family="Helvetica" font-weight="bold">
5011
</text>
<rect x="425" y="113" width="142" height="57" fill="#3399ff"/>
<text x="496" y="152" text-anchor="middle" fill="black" font-size="22" font-family="Helvetica" font-weight="bold">
5015
</text>
<rect x="425" y="57" width="142" height="56" fill="#99ccff"/>
<text x="496" y="96" text-anchor="middle" fill="black" font-size="22" font-family="Helvetica" font-weight="bold">
5019
</text>
<rect x="425" y="0" width="142" height="57" fill="white"/>
<text x="496" y="39" text-anchor="middle" fill="black" font-size="22" font-family="Helvetica" font-weight="bold">
5023
</text></svg>
