<?xml version="1.0" standalone="no"?>
<svg width="567" height="336" viewBox="0 0 567 336" xmlns="http://www.w3.org/2000/svg">
<title>
plots/color_scheme8000.svg
</title>
<desc>
Creator: ROOT Version 5.34/13
CreationDate: Fri Dec 13 10:49:20 2013</desc>
<defs>
</defs>
<rect x="0" y="0" width="567" height="336" fill="white"/>
<rect x="0" y="280" width="142" height="56" fill="#001e32"/>
<text x="71" y="319" text-anchor="middle" fill="black" font-size="22" font-family="Helvetica" font-weight="bold">
8000
</text>
<rect x="0" y="224" width="142" height="56" fill="#003d66"/>
<text x="71" y="263" text-anchor="middle" fill="black" font-size="22" font-family="Helvetica" font-weight="bold">
8004
</text>
<rect x="0" y="168" width="142" height="56" fill="#007acc"/>
<text x="71" y="207" text-anchor="middle" fill="black" font-size="22" font-family="Helvetica" font-weight="bold">
8008
</text>
<rect x="0" y="112" width="142" height="56" fill="#33adff"/>
<text x="71" y="151" text-anchor="middle" fill="black" font-size="22" font-family="Helvetica" font-weight="bold">
8012
</text>
<rect x="0" y="56" width="142" height="56" fill="#99d6ff"/>
<text x="71" y="95" text-anchor="middle" fill="black" font-size="22" font-family="Helvetica" font-weight="bold">
8016
</text>
<rect x="0" y="0" width="142" height="56" fill="white"/>
<text x="71" y="39" text-anchor="middle" fill="black" font-size="22" font-family="Helvetica" font-weight="bold">
8020
</text>
<rect x="142" y="280" width="141" height="56" fill="#230032"/>
<text x="213" y="319" text-anchor="middle" fill="black" font-size="22" font-family="Helvetica" font-weight="bold">
8001
</text>
<rect x="142" y="224" width="141" height="56" fill="#470066"/>
<text x="213" y="263" text-anchor="middle" fill="black" font-size="22" font-family="Helvetica" font-weight="bold">
8005
</text>
<rect x="142" y="168" width="141" height="56" fill="#8e00cc"/>
<text x="213" y="207" text-anchor="middle" fill="black" font-size="22" font-family="Helvetica" font-weight="bold">
8009
</text>
<rect x="142" y="112" width="141" height="56" fill="#c133ff"/>
<text x="213" y="151" text-anchor="middle" fill="black" font-size="22" font-family="Helvetica" font-weight="bold">
8013
</text>
<rect x="142" y="56" width="141" height="56" fill="#e099ff"/>
<text x="213" y="95" text-anchor="middle" fill="black" font-size="22" font-family="Helvetica" font-weight="bold">
8017
</text>
<rect x="142" y="0" width="141" height="56" fill="white"/>
<text x="213" y="39" text-anchor="middle" fill="black" font-size="22" font-family="Helvetica" font-weight="bold">
8021
</text>
<rect x="283" y="280" width="142" height="56" fill="#0a3200"/>
<text x="354" y="319" text-anchor="middle" fill="black" font-size="22" font-family="Helvetica" font-weight="bold">
8002
</text>
<rect x="283" y="224" width="142" height="56" fill="#146600"/>
<text x="354" y="263" text-anchor="middle" fill="black" font-size="22" font-family="Helvetica" font-weight="bold">
8006
</text>
<rect x="283" y="168" width="142" height="56" fill="#28cc00"/>
<text x="354" y="207" text-anchor="middle" fill="black" font-size="22" font-family="Helvetica" font-weight="bold">
8010
</text>
<rect x="283" y="112" width="142" height="56" fill="#5bff33"/>
<text x="354" y="151" text-anchor="middle" fill="black" font-size="22" font-family="Helvetica" font-weight="bold">
8014
</text>
<rect x="283" y="56" width="142" height="56" fill="#adff99"/>
<text x="354" y="95" text-anchor="middle" fill="black" font-size="22" font-family="Helvetica" font-weight="bold">
8018
</text>
<rect x="283" y="0" width="142" height="56" fill="white"/>
<text x="354" y="39" text-anchor="middle" fill="black" font-size="22" font-family="Helvetica" font-weight="bold">
8022
</text>
<rect x="425" y="280" width="142" height="56" fill="#321700"/>
<text x="496" y="319" text-anchor="middle" fill="black" font-size="22" font-family="Helvetica" font-weight="bold">
8003
</text>
<rect x="425" y="224" width="142" height="56" fill="#662f00"/>
<text x="496" y="263" text-anchor="middle" fill="black" font-size="22" font-family="Helvetica" font-weight="bold">
8007
</text>
<rect x="425" y="168" width="142" height="56" fill="#cc5f00"/>
<text x="496" y="207" text-anchor="middle" fill="black" font-size="22" font-family="Helvetica" font-weight="bold">
8011
</text>
<rect x="425" y="112" width="142" height="56" fill="#ff9233"/>
<text x="496" y="151" text-anchor="middle" fill="black" font-size="22" font-family="Helvetica" font-weight="bold">
8015
</text>
<rect x="425" y="56" width="142" height="56" fill="#ffc899"/>
<text x="496" y="95" text-anchor="middle" fill="black" font-size="22" font-family="Helvetica" font-weight="bold">
8019
</text>
<rect x="425" y="0" width="142" height="56" fill="white"/>
<text x="496" y="39" text-anchor="middle" fill="black" font-size="22" font-family="Helvetica" font-weight="bold">
8023
</text></svg>
