<?xml version="1.0" standalone="no"?>
<svg width="567" height="336" viewBox="0 0 567 336" xmlns="http://www.w3.org/2000/svg">
<title>
plots/color_scheme10000.svg
</title>
<desc>
Creator: ROOT Version 5.34/13
CreationDate: Fri Dec 13 10:49:20 2013</desc>
<defs>
</defs>
<rect x="0" y="0" width="567" height="336" fill="white"/>
<rect x="0" y="280" width="142" height="56" fill="#643200"/>
<text x="71" y="319" text-anchor="middle" fill="black" font-size="22" font-family="Helvetica" font-weight="bold">
10000
</text>
<rect x="0" y="224" width="142" height="56" fill="#663300"/>
<text x="71" y="263" text-anchor="middle" fill="black" font-size="22" font-family="Helvetica" font-weight="bold">
10004
</text>
<rect x="0" y="168" width="142" height="56" fill="#cc6600"/>
<text x="71" y="207" text-anchor="middle" fill="black" font-size="22" font-family="Helvetica" font-weight="bold">
10008
</text>
<rect x="0" y="112" width="142" height="56" fill="#ff9933"/>
<text x="71" y="151" text-anchor="middle" fill="black" font-size="22" font-family="Helvetica" font-weight="bold">
10012
</text>
<rect x="0" y="56" width="142" height="56" fill="#ffcc99"/>
<text x="71" y="95" text-anchor="middle" fill="black" font-size="22" font-family="Helvetica" font-weight="bold">
10016
</text>
<rect x="0" y="0" width="142" height="56" fill="white"/>
<text x="71" y="39" text-anchor="middle" fill="black" font-size="22" font-family="Helvetica" font-weight="bold">
10020
</text>
<rect x="142" y="280" width="141" height="56" fill="#644b00"/>
<text x="213" y="319" text-anchor="middle" fill="black" font-size="22" font-family="Helvetica" font-weight="bold">
10001
</text>
<rect x="142" y="224" width="141" height="56" fill="#664d00"/>
<text x="213" y="263" text-anchor="middle" fill="black" font-size="22" font-family="Helvetica" font-weight="bold">
10005
</text>
<rect x="142" y="168" width="141" height="56" fill="#cc9a00"/>
<text x="213" y="207" text-anchor="middle" fill="black" font-size="22" font-family="Helvetica" font-weight="bold">
10009
</text>
<rect x="142" y="112" width="141" height="56" fill="#ffcd33"/>
<text x="213" y="151" text-anchor="middle" fill="black" font-size="22" font-family="Helvetica" font-weight="bold">
10013
</text>
<rect x="142" y="56" width="141" height="56" fill="#ffe699"/>
<text x="213" y="95" text-anchor="middle" fill="black" font-size="22" font-family="Helvetica" font-weight="bold">
10017
</text>
<rect x="142" y="0" width="141" height="56" fill="white"/>
<text x="213" y="39" text-anchor="middle" fill="black" font-size="22" font-family="Helvetica" font-weight="bold">
10021
</text>
<rect x="283" y="280" width="142" height="56" fill="#641800"/>
<text x="354" y="319" text-anchor="middle" fill="black" font-size="22" font-family="Helvetica" font-weight="bold">
10002
</text>
<rect x="283" y="224" width="142" height="56" fill="#661800"/>
<text x="354" y="263" text-anchor="middle" fill="black" font-size="22" font-family="Helvetica" font-weight="bold">
10006
</text>
<rect x="283" y="168" width="142" height="56" fill="#cc3100"/>
<text x="354" y="207" text-anchor="middle" fill="black" font-size="22" font-family="Helvetica" font-weight="bold">
10010
</text>
<rect x="283" y="112" width="142" height="56" fill="#ff6433"/>
<text x="354" y="151" text-anchor="middle" fill="black" font-size="22" font-family="Helvetica" font-weight="bold">
10014
</text>
<rect x="283" y="56" width="142" height="56" fill="#ffb199"/>
<text x="354" y="95" text-anchor="middle" fill="black" font-size="22" font-family="Helvetica" font-weight="bold">
10018
</text>
<rect x="283" y="0" width="142" height="56" fill="white"/>
<text x="354" y="39" text-anchor="middle" fill="black" font-size="22" font-family="Helvetica" font-weight="bold">
10022
</text>
<rect x="425" y="280" width="142" height="56" fill="#003264"/>
<text x="496" y="319" text-anchor="middle" fill="black" font-size="22" font-family="Helvetica" font-weight="bold">
10003
</text>
<rect x="425" y="224" width="142" height="56" fill="#003366"/>
<text x="496" y="263" text-anchor="middle" fill="black" font-size="22" font-family="Helvetica" font-weight="bold">
10007
</text>
<rect x="425" y="168" width="142" height="56" fill="#0066cc"/>
<text x="496" y="207" text-anchor="middle" fill="black" font-size="22" font-family="Helvetica" font-weight="bold">
10011
</text>
<rect x="425" y="112" width="142" height="56" fill="#3399ff"/>
<text x="496" y="151" text-anchor="middle" fill="black" font-size="22" font-family="Helvetica" font-weight="bold">
10015
</text>
<rect x="425" y="56" width="142" height="56" fill="#99ccff"/>
<text x="496" y="95" text-anchor="middle" fill="black" font-size="22" font-family="Helvetica" font-weight="bold">
10019
</text>
<rect x="425" y="0" width="142" height="56" fill="white"/>
<text x="496" y="39" text-anchor="middle" fill="black" font-size="22" font-family="Helvetica" font-weight="bold">
10023
</text></svg>
